# xmcd
#
# Track frame offsets: 
#        150
#        16080
#        23920
#        39990
#        48160
#        59423
#        73261
#        75879
#        95904
#        114229
#        122654
#        131991
#        148651
#        172816
#
# Disc length: 2489 seconds
#
# Revision: 1
# Processed by: cddbd v1.5.2PL0 Copyright (c) Steve Scherf et al.
# Submitted via: ExactAudioCopyFreeDBPlugin 1.0
#
DISCID=b609b70e
DTITLE=Eric Ter - Soundscape Road
DYEAR=2013
DGENRE=Blues
TTITLE0=The Fella
TTITLE1=Sunset - Sunrise
TTITLE2=I Dig R&R Music
TTITLE3=She Said It
TTITLE4=Things To Visualise
TTITLE5=Matter Of Time
TTITLE6=Himalaya
TTITLE7=Walking The Dog
TTITLE8=Soundscape Road
TTITLE9=Square Funk Taboo
TTITLE10=Just A Thing
TTITLE11=The Bells
TTITLE12=Got Me Bad
TTITLE13=Wild Child
EXTD=
EXTT0=
EXTT1=
EXTT2=
EXTT3=
EXTT4=
EXTT5=
EXTT6=
EXTT7=
EXTT8=
EXTT9=
EXTT10=
EXTT11=
EXTT12=
EXTT13=
PLAYORDER=
